<?xml version="1.0" standalone="no"?><!DOCTYPE svg PUBLIC "-//W3C//DTD SVG 1.1//EN" "http://www.w3.org/Graphics/SVG/1.1/DTD/svg11.dtd"><svg t="1693378475055" class="icon" viewBox="0 0 1024 1024" version="1.1" xmlns="http://www.w3.org/2000/svg" p-id="11313" xmlns:xlink="http://www.w3.org/1999/xlink" width="200" height="200"><path d="M281.6 486.4h460.8v93.875H281.6z m0 187.75h460.8v230.4H281.6z" fill="#1296db" p-id="11314"></path><path d="M938.675 81.075H85.325a25.6 25.6 0 0 0-25.6 25.6v256a25.6 25.6 0 0 0 25.6 25.6h853.35a25.6 25.6 0 0 0 25.6-25.6v-256a25.6 25.6 0 0 0-25.6-25.6zM913.05 132.25v204.8H110.925v-204.8H913.05z" fill="#1296db" p-id="11315"></path><path d="M938.675 319.411a25.6 25.6 0 0 1 25.421 22.605l0.18 2.995v554.65a25.6 25.6 0 0 1-51.047 2.995l-0.154-2.995V345.01a25.6 25.6 0 0 1 25.6-25.6z m-853.53 0a25.6 25.6 0 0 1 25.6 22.4l0.18 2.995 4.275 563.79a25.6 25.6 0 0 1-50.995 3.378l-0.205-2.97-4.275-563.814a25.6 25.6 0 0 1 25.42-25.779z" fill="#1296db" p-id="11316"></path><path d="M89.856 883.2l849.075 8.525a25.6 25.6 0 0 1 2.458 51.072l-2.97 0.128L89.344 934.4a25.6 25.6 0 0 1-2.483-51.046l2.995-0.154z m720.82-674.125a25.6 25.6 0 0 1 2.969 51.021l-2.97 0.18h-448a25.6 25.6 0 0 1-2.995-51.047l2.995-0.154h448z m-576-0.077a25.6 25.6 0 0 1 2.969 51.021l-2.97 0.18h-21.35a25.6 25.6 0 0 1-2.97-51.021l2.97-0.18h21.35z" fill="#1296db" p-id="11317"></path></svg>